<?xml version="1.0" encoding="utf-8"?>
<!-- Generator: Adobe Illustrator 27.0.0, SVG Export Plug-In . SVG Version: 6.00 Build 0)  -->
<svg version="1.1" id="Layer_1" xmlns="http://www.w3.org/2000/svg" xmlns:xlink="http://www.w3.org/1999/xlink" x="0px" y="0px"
	 viewBox="0 0 33.8 75.9" style="enable-background:new 0 0 33.8 75.9;" xml:space="preserve">
<style type="text/css">
	.st0{stroke:#FFFFFF;stroke-width:2.5;stroke-miterlimit:10;}
</style>
<g>
	<path class="st0" d="M18.7,52c-4-1.4-10.8-6.4-10.8-12.5c0-4.1,2.5-7.4,9.3-12.9c5.9-4.6,8.9-7.7,8.9-11.7c0-3.9-2.6-7.2-7.3-7.2
		c-7.1,0-11.3,6.7-12.7,6.7c-1.6,0-4.6-2.5-4.6-5c0-1.5,0.5-2.6,2-4C7,2.6,11.8,1.6,15.1,1.6c9.8,0,17.1,8.5,17.1,16.9
		c0,4.5-1.5,8.4-7.6,13.4c-5.4,4.5-8.3,6.5-8.3,10.1c0,2.9,1.5,4.8,4.4,7.5L18.7,52z M16,74.4c-3.9,0-6.7-2.8-6.7-6.9
		c0-3.9,2.7-6.9,6.7-6.9c3.8,0,6.7,3,6.7,6.9C22.6,71.6,19.7,74.4,16,74.4z"/>
</g>
</svg>
