<?xml version="1.0" encoding="utf-8"?>
<!-- Generator: Adobe Illustrator 27.0.0, SVG Export Plug-In . SVG Version: 6.00 Build 0)  -->
<svg version="1.1" id="Layer_1" xmlns="http://www.w3.org/2000/svg" xmlns:xlink="http://www.w3.org/1999/xlink" x="0px" y="0px"
	 viewBox="0 0 220.6 251.6" style="enable-background:new 0 0 220.6 251.6;" xml:space="preserve">
<path d="M86.9,198.9L54,249.5L2.1,215.8L35,165.2L86.9,198.9z M209.6,131.5c-13.6,20.9-27.9,31.8-68.3,33.2
	c-25.2,0.8-35.1,4.5-42.5,15.9l-2.8,4.2L44.1,151l4.7-7.2c13.8-21.2,31.4-29.1,69.9-31.1c23.1-1.1,31.9-3.1,38.7-13.4
	c2.6-4,5.4-10.3,3.7-18c-1.7-8.1-7.6-15.5-17.7-22c-17.3-11.2-34.5-9.4-47.3,5l-0.9,1L45.4,33.1l1-1.3c6.6-8.5,21-23.4,43.8-28.5
	c24-5.3,50.8,1.4,79.6,20.2c25.6,16.7,42,37,47.4,58.9C221.4,99.7,218.7,117.6,209.6,131.5z"/>
</svg>
