<?xml version="1.0" encoding="utf-8"?>
<!-- Generator: Adobe Illustrator 27.0.0, SVG Export Plug-In . SVG Version: 6.00 Build 0)  -->
<svg version="1.1" id="Layer_1" xmlns="http://www.w3.org/2000/svg" xmlns:xlink="http://www.w3.org/1999/xlink" x="0px" y="0px"
	 viewBox="0 0 47.8 83.9" style="enable-background:new 0 0 47.8 83.9;" xml:space="preserve">
<g>
	<path d="M17.8,58.9v-1.8c0-6.3,1.9-12.2,11.3-20.6c6.8-6.1,8-10.7,8-15.6c0-5.7-3.6-12.3-12.7-12.3c-8.8,0-12.9,5.5-14.2,13.6H0
		C0.4,15,5.3,0,24.6,0C42,0,47.8,12.1,47.8,21.1c0,8.3-2.7,13.7-11.4,21.6c-5.9,5.4-7.8,9.5-7.8,15.2v1H17.8z M17.8,83.9V67.5h10.7
		v16.4H17.8z"/>
</g>
</svg>
