<?xml version="1.0" encoding="utf-8"?>
<!-- Generator: Adobe Illustrator 27.0.0, SVG Export Plug-In . SVG Version: 6.00 Build 0)  -->
<svg version="1.1" id="Layer_1" xmlns="http://www.w3.org/2000/svg" xmlns:xlink="http://www.w3.org/1999/xlink" x="0px" y="0px"
	 viewBox="0 0 2000 2000" style="enable-background:new 0 0 2000 2000;" xml:space="preserve">
<style type="text/css">
	.st0{fill:#FFFFFF;}
</style>
<path class="st0" d="M1797.5,678.2c-49.8-84.1-114.2-157.1-191.6-217.2l40-2.5c19-1.2,34.4-13.9,39.2-32.4
	c4.8-18.5-2.6-37-18.7-47.2l-43.9-27.9c-12.6-8-18.5-23-14.8-37.4l13-50.4c4.8-18.5-2.6-37-18.7-47.2c-16.1-10.2-36-9-50.7,3.2
	l-40.1,33.1c-11.5,9.5-27.6,10.5-40.1,2.5l-43.9-27.9c-16.1-10.2-36-9-50.7,3.2c-14.7,12.2-19.7,31.5-12.7,49.2l19.1,48.4
	c1.7,4.2,2.5,8.6,2.4,13.1c-54.9-19.2-112-32.2-169.8-38.6c-61.6-6.8-124.2-6.2-186.2,1.9c-23,3-45.9,7-68.5,12
	c-7.1-13.4-19.8-22.8-35.3-25.9l-61.9-12.4c-18.1-3.6-31.7-18.4-33.9-36.7l-7.4-62.7c-2.7-22.6-18.8-40.1-41.1-44.5
	c-22.3-4.4-43.9,5.5-55,25.3l-30.9,55.1c-9,16.1-27.3,24.5-45.4,20.9l-61.9-12.4c-22.3-4.5-43.9,5.5-55,25.3
	c-11.1,19.8-8.4,43.4,7,60.1l42.8,46.4c12.5,13.6,14.9,33.5,5.8,49.6l-30.9,55.1c-7.2,12.9-8.8,27.5-4.2,41.1
	c4,12.1,12.3,22.2,23.1,28.7c-44.6,45.3-83.7,96.1-116,150.9c-2.4-2.6-4.9-5.3-7.5-7.8c-39.1-38.2-86.3-55.3-140.2-50.8
	c-26.2,2.2-51.4,9.5-75.6,21.9c-24.2,12.4-47.4,29.9-69.3,52.3c-41.8,42.7-64.3,91.1-66.9,143.9c-2.7,53.2,15.6,103,54.2,147.9
	l20.8,24.2l94-96.1L255,895.4c-10-13.2-23.6-33.3-26.8-55c-3.3-22.6,4.6-43.3,24.3-63.4c17.3-17.7,35.6-26.6,56-27
	c20.1-0.4,37.7,7,53.8,22.7c7.7,7.6,13.1,16.3,16.4,26.8c1.6,5.2,5.1,22.5,1.6,71.5v0c-26.8,98.7-33.6,200.7-20.2,303
	c20.8,159.9,89.4,306.9,198.3,425.1l6.6-6.1c-107.6-116.8-175.4-262.1-196-420.2c-11.4-87.5-7.9-174.6,10.4-259.7
	c0.8,25.4,4.4,47.1,10.9,65.7c10,28.7,33.7,61.1,72.6,99l20.9,20.4l89.7-91.8L552.5,986c-29.3-28.6-39.3-44.8-42.5-53.3
	c-2.1-5.6-6.6-24-2.4-75.1c3.8-46.4,1.3-82.5-7.6-110.4c-7-22.1-18.1-42.2-32.9-60.1c36-61.5,80.7-118.2,132.2-167.5
	c31.1-29.8,64.6-57,100.1-81.1c48.5-32.9,100.8-60.2,155.5-81.1c28.9-11.1,58.6-20.4,88.8-27.9c28.6-7.1,57.6-12.6,86.9-16.4
	c61.3-8,123.2-8.6,184.1-1.9c57.7,6.4,114.6,19.4,169.4,38.7c-1.9,6.6-5.7,12.4-11,16.8l-40.1,33.1c-14.7,12.2-19.7,31.5-12.7,49.2
	s23.8,28.4,42.9,27.2l51.9-3.2c14.9-0.9,28.5,7.7,33.9,21.5l19.1,48.4c6.7,16.8,22.2,27.3,40,27.3c0.9,0,1.9,0,2.9-0.1
	c19-1.2,34.4-13.9,39.2-32.4l12.9-50.4c3.6-13.8,15.2-23.9,29.3-25.4c80,60.6,146.5,134.9,197.4,220.8
	c53,89.5,86.8,187.7,100.4,291.7l8.9-1.2C1885.4,868.1,1851.2,768.8,1797.5,678.2z M491.4,749.9c8.6,26.8,10.9,61.7,7.2,106.9
	c-4,48.5-0.6,69.7,3,79c5.1,13.4,20.5,33,44.6,56.5l14.5,14.2l-77.1,78.9l-14.5-14.2c-37.8-36.9-60.8-68.2-70.4-95.6
	c-9.4-27-12.5-61.1-9.5-104.2c3.3-46.3,0.7-66.3-2-74.9c-3.8-11.9-9.9-21.9-18.7-30.5c-17.4-17-36.5-25.2-58.4-25.2
	c-0.6,0-1.2,0-1.9,0c-22.8,0.5-43.2,10.2-62.3,29.7c-21.5,22-30.5,45.9-26.7,71.1c3.5,23.7,18,45.1,28.5,59.1l10.5,13.9l-81.7,83.6
	l-14.4-16.8c-37.1-43.2-54.6-90.8-52-141.6c2.5-50.5,24.2-97,64.3-138.1c42.3-43.3,89.2-67.4,139.3-71.6c51.2-4.3,96,12,133.2,48.3
	C467.8,698.9,482.7,722.9,491.4,749.9z M851.6,348.9c-55.3,21.2-108.2,48.8-157.3,82.1c-39.6,26.9-76.8,57.6-110.9,91.4
	c-9.9-5.2-17.7-14.3-21.2-24.9c-2.6-7.9-4.2-20.2,3.5-33.9l30.9-55.1c11-19.5,8.1-43.7-7.1-60.1l-42.8-46.4
	c-12.7-13.8-15-33.3-5.8-49.6c9.2-16.3,27-24.6,45.4-20.9l61.9,12.4c22,4.4,44.1-5.8,55-25.3l30.9-55.1c9.2-16.4,27-24.6,45.4-20.9
	c18.4,3.7,31.7,18.1,33.9,36.7l7.4,62.7c2.6,22.2,19.1,40.1,41,44.5l61.9,12.4c12.1,2.4,21.9,9.2,27.9,19.2
	C917.6,326.2,884.1,336.5,851.6,348.9z M1554.3,485.2l-12.9,50.4c-4.6,17.8-19,24.9-31,25.6c-12,0.7-27.2-4.5-33.9-21.6l-19.1-48.4
	c-6.6-16.6-22.5-27.3-40.1-27.3c-0.9,0-1.8,0-2.8,0.1l-51.9,3.2c-18.3,1.1-29.5-10.4-33.9-21.6c-4.4-11.2-4.1-27.3,10-38.9
	l40.1-33.1c7.1-5.8,12-13.6,14.3-22.5c2.3-8.9,1.7-18.1-1.7-26.7l-19.1-48.3c-6.7-17,0.8-31.3,10-39c9.3-7.6,24.7-12.3,40.1-2.5
	l43.9,27.9c15.9,10.1,36.2,8.8,50.7-3.2l40.1-33.1c14.1-11.7,30-8.9,40.1-2.5c10.1,6.4,19.4,19.7,14.8,37.4l-12.9,50.3
	c-4.7,18.2,2.8,37.2,18.7,47.2l43.9,27.9c15.5,9.8,17.8,25.8,14.8,37.4c-3,11.6-12.7,24.5-31,25.6l-51.9,3.3
	C1574.7,454,1559,467,1554.3,485.2z"/>
<path class="st0" d="M613.1,1045.2l-89.6,91.7l91.7,89.7l89.7-91.7L613.1,1045.2z M615,1213.9l-78.8-77l77.1-78.8l78.8,77.1
	L615,1213.9z"/>
<path class="st0" d="M1163.8,936.7c-6,59.5-18.2,120-36.7,181.2c-6,19.8-1.6,40,9,56.8c14,22.1,38.8,38.1,64.7,38.6
	c77.4,1.6,89-96,100.8-152.6c16.3-78.8,23.7-159.5,21.1-239.9c-1.4-43.4-5.8-86.8-13.2-129.6c-10.3-59.5-23.8-168.4-109.7-154.8
	c-42.1,6.7-75.1,53.5-62.9,95.5c4.7,16.3,8.9,32.7,12.6,49.2c42.6,2.5,78.1,31.6,89.9,71c-13.7-7.1-29.3-11.1-45.8-11.1
	c-11.4,0-22.3,1.9-32.5,5.4c5.8,43.3,8,87.3,6.7,131.8C1167.1,897.6,1165.8,917.1,1163.8,936.7z"/>
<path class="st0" d="M1506.9,1045c-6,59.5-18.2,120-36.7,181.2c-6,19.8-1.6,40,9,56.8c14,22.1,38.8,38.1,64.7,38.6
	c77.4,1.6,89-96,100.8-152.6c16.3-78.8,23.7-159.5,21.1-239.9c-1.4-43.4-5.8-86.8-13.2-129.6c-10.3-59.5-23.8-168.4-109.7-154.8
	c-42.1,6.7-75.1,53.5-62.9,95.5c4.7,16.3,8.9,32.7,12.6,49.2c42.6,2.5,78.1,31.6,89.9,71c-13.7-7.1-29.3-11.1-45.8-11.1
	c-11.4,0-22.3,1.9-32.5,5.4c5.8,43.3,8,87.3,6.7,131.8C1510.2,1005.9,1508.9,1025.4,1506.9,1045z"/>
<path class="st0" d="M962.6,668.2c-4.3-13.2-16.1-21.8-30-21.8h-36.4c-9.8,0-18.4-6.2-21.5-15.6l-11.2-34.6
	c-4.3-13.2-16.1-21.8-30-21.8c-13.9,0-25.7,8.6-30,21.8l-11.2,34.6c-3,9.3-11.6,15.6-21.4,15.6h-36.4c-13.9,0-25.7,8.6-30,21.8
	c-4.3,13.2,0.2,27.1,11.5,35.3l29.4,21.4c7.9,5.8,11.2,15.9,8.2,25.2l-11.2,34.6c-4.3,13.3,0.2,27.1,11.5,35.3
	c11.3,8.2,25.8,8.2,37.1,0l29.4-21.4c7.9-5.8,18.6-5.8,26.5,0l29.4,21.4c5.6,4.1,12.1,6.1,18.6,6.1c6.5,0,12.9-2,18.6-6.1
	c11.3-8.2,15.8-22,11.5-35.3l-11.2-34.6c-3-9.3,0.3-19.5,8.2-25.2l29.4-21.4C962.4,695.3,966.9,681.4,962.6,668.2z M945.9,696.2
	l-29.4,21.4c-11.1,8.1-15.7,22.2-11.5,35.3l11.2,34.6c3.7,11.5-1.8,20.6-8.2,25.2c-6.4,4.7-16.8,7.1-26.5,0l-29.4-21.4
	c-11.1-8.1-26-8.1-37.1,0l-29.4,21.4c-9.8,7.1-20.1,4.7-26.5,0c-6.4-4.7-11.9-13.7-8.2-25.2l11.2-34.6c4.2-13-0.4-27.2-11.5-35.3
	l-29.4-21.4c-9.8-7.1-10.6-17.7-8.2-25.2c2.5-7.5,9.4-15.6,21.5-15.6h36.4c13.7,0,25.8-8.8,30-21.8l11.2-34.6
	c3.7-11.5,13.5-15.6,21.5-15.6c7.9,0,17.7,4.1,21.5,15.6l11.2,34.6c4.2,13,16.3,21.8,30,21.8h36.4c12.1,0,19,8.1,21.5,15.6
	C956.5,678.5,955.7,689.1,945.9,696.2z"/>
<path class="st0" d="M1667.4,1545.1c-9.5-25.2-23.8-49-40.2-67.1c-35.6-39.3-93.3-66.2-143.7-66.9c-81.4-1-158.7-11.6-229.6-31.6
	c-75.4-21.2-146.1-53.7-210.2-96.6c-54.6-36.5-114.9-35.2-155.8-27.8c-47.1,8.6-91.9,39.8-126.1,87.8c-5.3,7.5-10.2,15.9-14.3,25
	c-0.3,0.7-0.7,1.5-1,2.2c-1.1,2.5-2.2,5.1-3.2,7.7c-14.4,37.4-18,83-9.3,121.2c11.3,49.6,44.1,96.7,87.9,126
	c70.3,47,146.9,86.1,227.8,116.4c77.6,29.1,159.7,50.3,243.9,62.9l0,0.1l2.9,0.4c56.3,8.3,114.3,12.9,172.3,13.6c1,0,1.9,0,2.9,0
	c51.6,0,99.1-17.7,141.2-52.5c51.6-42.7,64.1-108.3,67-143.5v0C1681.8,1598.7,1677.5,1571.9,1667.4,1545.1z M1292.6,1795.2
	L1292.6,1795.2c-82.9-12.6-163.6-33.5-239.9-62.1c-80.2-30.1-156.2-68.9-225.9-115.5c-41.9-28-73.3-73.1-84.1-120.5
	c-8.7-38.3-4.5-84.4,11-121.1c0,0,0,0,0,0c0.6-0.1,1.1-0.2,1.7-0.3c0.9-0.2,1.9-0.3,2.8-0.5c1-0.2,2-0.3,3-0.5
	c0.9-0.1,1.8-0.3,2.7-0.4c1-0.2,2-0.3,3-0.4c0.9-0.1,1.8-0.2,2.6-0.4c1-0.1,2-0.3,3-0.4c0.9-0.1,1.7-0.2,2.6-0.3c1-0.1,2-0.2,3-0.3
	c0.9-0.1,1.7-0.2,2.5-0.3c1-0.1,2-0.2,3-0.3c0.8-0.1,1.7-0.2,2.5-0.2c1-0.1,2-0.2,3-0.3c0.8-0.1,1.6-0.2,2.5-0.2c1-0.1,2-0.2,3-0.2
	c0.8-0.1,1.6-0.1,2.4-0.2c1-0.1,2-0.1,3-0.2c0.8-0.1,1.6-0.1,2.4-0.2c1,0,2-0.1,3-0.1c0.8,0,1.6-0.1,2.3-0.1c1,0,2-0.1,3-0.1
	c0.8,0,1.5,0,2.3-0.1c1,0,2-0.1,3-0.1c0.8,0,1.5,0,2.3,0c1,0,2,0,3,0h2.3c1,0,2,0,2.9,0c0.8,0,1.5,0,2.2,0c1,0,2,0,2.9,0.1
	c0.7,0,1.5,0,2.2,0c1,0,1.9,0.1,2.9,0.1c0.7,0,1.5,0.1,2.2,0.1c1,0,1.9,0.1,2.9,0.1c0.7,0.1,1.5,0.1,2.2,0.1c1,0.1,1.9,0.1,2.9,0.2
	c0.7,0.1,1.4,0.1,2.1,0.2c1,0.1,1.9,0.2,2.9,0.2c0.7,0.1,1.4,0.1,2.1,0.2c1,0.1,1.9,0.2,2.8,0.3c0.7,0.1,1.4,0.2,2.1,0.2
	c0.9,0.1,1.9,0.2,2.8,0.4c0.7,0.1,1.4,0.2,2.1,0.3c0.9,0.1,1.9,0.3,2.8,0.4c0.7,0.1,1.4,0.2,2.1,0.3c0.9,0.1,1.8,0.3,2.8,0.4
	c0.7,0.1,1.4,0.2,2,0.3c0.9,0.1,1.8,0.3,2.8,0.5c0.7,0.1,1.3,0.2,2,0.4c0.9,0.2,1.8,0.4,2.8,0.5c0.6,0.1,1.3,0.2,2,0.4
	c0.9,0.2,1.8,0.4,2.7,0.6c0.6,0.1,1.3,0.3,1.9,0.4c0.9,0.2,1.8,0.4,2.7,0.6c0.6,0.2,1.3,0.3,1.9,0.4c0.9,0.2,1.8,0.4,2.8,0.7
	c0.6,0.2,1.2,0.3,1.8,0.5c0.9,0.2,1.9,0.5,2.8,0.8c0.6,0.2,1.2,0.3,1.7,0.5c1,0.3,1.9,0.5,2.9,0.8c0.5,0.2,1.1,0.3,1.6,0.5
	c1,0.3,2.1,0.6,3.1,1c0.4,0.2,0.9,0.3,1.3,0.4c1.5,0.5,2.9,1,4.4,1.5c42.8,14.7,77.9,40.4,104.5,76.2c3.8,5.1,7.4,10.4,10.7,15.8
	c1,1.5,1.9,3.1,2.8,4.7c11.7,19.8,20.8,41.7,27.3,65.3v0c0.4,1.4,0.8,2.8,1.1,4.3c0.4,1.4,0.7,2.9,1.1,4.3
	c2.3,9.6,4.3,19.5,5.8,29.6c0.3,2,0.6,4.1,0.8,6.1c2,15.3,3,31.2,3,47.6c0,0.9,0,1.8,0,2.7l9,0.1c0.5-68.7-16.3-129.8-48.6-177.5
	c7.2,0.9,14.3,2.1,21.3,3.5c2.6,0.5,5.1,1,7.6,1.6c65.4,14.6,120.3,48.8,160.6,100.2c1.5,2,3.1,4,4.6,6c1.4,1.8,2.7,3.7,4,5.6
	c0.4,0.6,0.9,1.3,1.3,1.9c0.9,1.3,1.8,2.5,2.6,3.8c0.5,0.8,1,1.6,1.6,2.4c0.8,1.1,1.5,2.3,2.2,3.4c0.6,0.9,1.1,1.8,1.6,2.6
	c0.7,1.1,1.4,2.2,2.1,3.3c0.6,0.9,1.1,1.8,1.6,2.8c0.7,1.1,1.3,2.2,1.9,3.3c0.5,0.9,1.1,1.9,1.6,2.9c0.6,1.1,1.2,2.2,1.8,3.3
	c0.5,1,1,2,1.6,3c0.6,1.1,1.2,2.2,1.8,3.3c0.5,1,1,2,1.5,3.1c0.6,1.1,1.1,2.2,1.7,3.3c0.5,1,1,2.1,1.5,3.1c0.5,1.1,1,2.2,1.6,3.3
	c0.5,1.1,1,2.1,1.4,3.2c0.5,1.1,1,2.2,1.5,3.3c0.5,1.1,0.9,2.2,1.4,3.2c0.5,1.1,0.9,2.2,1.4,3.4c0.5,1.1,0.9,2.2,1.3,3.3
	c0.4,1.1,0.9,2.3,1.4,3.4c0.4,1.1,0.8,2.2,1.3,3.4c0.4,1.1,0.9,2.3,1.3,3.4s0.8,2.3,1.2,3.4c0.4,1.2,0.8,2.3,1.2,3.5
	c0.4,1.2,0.8,2.3,1.1,3.5c0.4,1.2,0.8,2.3,1.2,3.5c0.4,1.2,0.7,2.3,1.1,3.5c0.4,1.2,0.7,2.3,1.1,3.5c0.3,1.2,0.7,2.4,1,3.5
	c0.3,1.2,0.7,2.4,1,3.6c0.3,1.2,0.6,2.4,1,3.6c0.3,1.2,0.6,2.4,0.9,3.6c0.3,1.2,0.6,2.4,0.9,3.6c0.3,1.2,0.6,2.4,0.9,3.7
	c0.3,1.2,0.6,2.4,0.8,3.6c0.3,1.2,0.5,2.5,0.8,3.7c0.3,1.2,0.5,2.4,0.8,3.6c0.3,1.2,0.5,2.5,0.8,3.8c0.2,1.2,0.5,2.5,0.7,3.7
	c0.2,1.3,0.5,2.5,0.7,3.8c0.2,1.2,0.4,2.5,0.6,3.7c0.2,1.3,0.4,2.6,0.6,3.8c0.2,1.2,0.4,2.5,0.5,3.7c0.2,1.3,0.4,2.6,0.6,3.9
	c0.2,1.2,0.3,2.5,0.5,3.7c0.2,1.3,0.3,2.6,0.5,3.9c0.1,1.2,0.3,2.5,0.4,3.7c0.1,1.3,0.3,2.7,0.4,4c0.1,1.2,0.2,2.5,0.4,3.7
	c0.1,1.4,0.2,2.7,0.3,4.1c0.1,1.2,0.2,2.4,0.3,3.7c0.1,1.4,0.2,2.7,0.3,4.1c0.1,1.2,0.1,2.5,0.2,3.7c0.1,1.4,0.1,2.8,0.2,4.2
	c0.1,1.2,0.1,2.5,0.2,3.7c0.1,1.4,0.1,2.8,0.1,4.2c0,1.2,0.1,2.4,0.1,3.7c0,1.4,0,2.9,0.1,4.3c0,1.2,0,2.4,0,3.6V1795.2z"/>
</svg>
