<?xml version="1.0" encoding="utf-8"?>
<!-- Generator: Adobe Illustrator 27.0.0, SVG Export Plug-In . SVG Version: 6.00 Build 0)  -->
<svg version="1.1" id="Layer_1" xmlns="http://www.w3.org/2000/svg" xmlns:xlink="http://www.w3.org/1999/xlink" x="0px" y="0px"
	 viewBox="0 0 134.8 131.6" style="enable-background:new 0 0 134.8 131.6;" xml:space="preserve">
<style type="text/css">
	.st0{fill-rule:evenodd;clip-rule:evenodd;fill:none;stroke:#FFFFFF;stroke-width:3;stroke-miterlimit:10;}
</style>
<path class="st0" d="M67.4,1.5C31,1.5,1.5,31,1.5,67.4c0,29.2,18.9,53.8,45.1,62.5c3.3,0.6,4.5-1.4,4.5-3.1c0-1.6-0.1-6.8-0.1-12.3
	c-16.6,3-20.8-4-22.2-7.7c-0.7-1.9-4-7.7-6.8-9.3c-2.3-1.2-5.6-4.3-0.1-4.4c5.2-0.1,8.9,4.8,10.1,6.8c5.9,10,15.4,7.2,19.2,5.4
	c0.6-4.3,2.3-7.2,4.2-8.8c-14.7-1.6-30-7.3-30-32.5c0-7.2,2.6-13.1,6.8-17.7c-0.7-1.6-3-8.4,0.7-17.5c0,0,5.5-1.7,18.1,6.8
	c5.3-1.5,10.9-2.2,16.5-2.2S78.8,34,84,35.5c12.6-8.6,18.1-6.8,18.1-6.8c3.6,9.1,1.3,15.8,0.7,17.5c4.2,4.6,6.8,10.5,6.8,17.7
	c0,25.3-15.4,30.9-30.1,32.5c2.4,2.1,4.4,6,4.4,12.2c0,8.8-0.1,15.9-0.1,18.1c0,1.7,1.2,3.8,4.5,3.1c26-8.7,44.9-33.4,44.9-62.5
	C133.3,31,103.8,1.5,67.4,1.5z"/>
</svg>
