<?xml version="1.0" encoding="utf-8"?>
<!-- Generator: Adobe Illustrator 27.0.0, SVG Export Plug-In . SVG Version: 6.00 Build 0)  -->
<svg version="1.1" id="Layer_1" xmlns="http://www.w3.org/2000/svg" xmlns:xlink="http://www.w3.org/1999/xlink" x="0px" y="0px"
	 viewBox="0 0 139.9 139.9" style="enable-background:new 0 0 139.9 139.9;" xml:space="preserve">
<style type="text/css">
	.st0{fill:none;stroke:#FFFFFF;stroke-width:3;stroke-miterlimit:10;}
</style>
<g>
	<path class="st0" d="M5.6,3.7C5,4.4,4.4,5,3.7,5.6L2.1,4L1.8,1.8L4,2.1L5.6,3.7z"/>
	<path class="st0" d="M138.4,129.5l0,1l-3.9,3.9l-3.9,3.9l-1,0l-2.3-2.3l-0.7-0.1L41.2,51.2L40.7,50l-0.1-0.1l-24.9-25l0,0l0.3-1.8
		l0,0l0,0l-2-2.1l-0.2-0.2L5,9.3L3.8,5.7l0,0C4.4,5,5,4.4,5.6,3.7l0,0L9.3,5l11.3,8.9l0.2,0.2l2.1,2l0,0l1.8-0.3l0.1,0l25,24.9
		l1.3,0.5l84.8,85.3l0.1,0.7L138.4,129.5z"/>
	<g>
		<path class="st0" d="M41.2,51.2c2.1-2.6,7.7-8.2,10-10"/>
		<path class="st0" d="M15.8,24.8c2.2-2.5,6.7-7,9-9"/>
		<path class="st0" d="M16.1,22.9c2-2.1,4.8-5,6.8-6.9"/>
		<path class="st0" d="M14,20.9c2-2.1,4.8-5,6.8-6.9"/>
		<path class="st0" d="M40.7,50c2.2-2.6,6.9-7.3,9.2-9.3"/>
		<path class="st0" d="M127.2,136.1c2.5-2.2,6.7-6.5,8.9-8.9"/>
	</g>
</g>
</svg>
