<?xml version="1.0" encoding="utf-8"?>
<!-- Generator: Adobe Illustrator 27.0.0, SVG Export Plug-In . SVG Version: 6.00 Build 0)  -->
<svg version="1.1" id="Layer_1" xmlns="http://www.w3.org/2000/svg" xmlns:xlink="http://www.w3.org/1999/xlink" x="0px" y="0px"
	 viewBox="0 0 113.1 134.8" style="enable-background:new 0 0 113.1 134.8;" xml:space="preserve">
<style type="text/css">
	.st0{fill:none;stroke:#FFFFFF;stroke-width:3;stroke-miterlimit:10;}
</style>
<path class="st0" d="M5.5,124.2l4.8,3.6c3.9,2.9,9.5,5.6,16.8,5.6c4.8,0,10.4-1.1,16.8-4.1c13.1-6.2,27-19,41.2-38.1l1.3-1.8
	c14.2-19.1,22.5-36.1,24.6-50.4c2.6-17.6-4.6-27-11.1-31.8l-4.8-3.6c-2.2-1.6-4.9-2.3-7.6-1.8c-2.7,0.4-5,1.9-6.6,4.1l-15.6,21
	c-1.8,2.4-2.5,5.2-2.1,8.1c0.4,2.9,1.9,5.5,4.3,7.3l3.7,2.7c2.6,1.9,3,5.7,1,8.5L46.6,87.7c-1,1.4-2.5,2.3-4.1,2.5
	c-1.6,0.3-3.1-0.1-4.3-1l-3.7-2.7c-2.4-1.8-5.3-2.5-8.2-2c-2.9,0.5-5.4,2-7.2,4.4l-15.6,21C0.2,114.4,1.1,120.9,5.5,124.2z"/>
</svg>
