<svg
      version="1.1"
      id="Layer_1"
      xmlns="http://www.w3.org/2000/svg"
      xmlns:xlink="http://www.w3.org/1999/xlink"
      x="0px"
      y="0px"
      viewBox="0 0 402.3 199.3"
      style="enable-background: new 0 0 402.3 199.3"
      xml:space="preserve"
    >
      <style type="text/css">
        .st0 {
          fill: none;
          stroke: #ffffff;
          stroke-width: 3;
          stroke-miterlimit: 10;
        }
      </style>
      <g>
        <g>
          <path
            class="st0"
            d="M126.1,63.9c-7.4,72.4-74.8,163.1-108.5,124.2c-24-27.8-19.8-97.7,3.7-143C37,14.9,68.8-19.1,95.4,20.8"
          />
          <path
            class="st0"
            d="M157.9,26.4c12.8-22.7,37.2-32.3,55.1-17.2c21.3,18.1,19.1,78,6.7,118.2C205.9,171.8,173,208,150.1,195
			c-9.5-5.4-14.5-15.2-16-20.1"
          />
          <path
            class="st0"
            d="M328.7,8.8c12.8-8.7,25.6-10.1,34.5-1.3c18.6,18.5,18,79.7,5.6,120"
          />
          <path class="st0" d="M328.7,8.8" />
          <path
            class="st0"
            d="M375.2,38.9c2.9,1.6,5.6,3.7,8.2,6.5c15.9,17.2,19.2,52.6,16.4,78.8c-3.2,30.7-17.6,73.6-62,73.6
			c-19.4,0-32.9-8.9-41.8-22.5"
          />
          <path
            class="st0"
            d="M280.2,18.8c8.8-10.8,19.1-17,30.9-17c26.2,0,45.4,42.7,35.7,89.6c-4.3,20.9-16.7,25-26.1,28.7
			c-9.4,3.7-26.6,3.3-37,12.3"
          />
          <path
            class="st0"
            d="M219.1,16.5C233,4,248.7-1.2,262.7,3.1c29.7,9.3,36.5,71.8,22.4,124.3c-12.2,45.4-48.1,83.5-69.7,66
			c-1-0.8-1.9-1.7-2.8-2.7"
          />
          <path
            class="st0"
            d="M261.5,64.1c0.1,21.4-3.1,44.7-8.9,63.4c-13.7,44.3-48.1,83.5-69.7,66c-1.1-0.9-2.3-2.1-3.3-3.2"
          />
          <path
            class="st0"
            d="M322.9,119.2c-0.7,2.8-1.5,5.6-2.3,8.3c-13.7,44.3-48.1,83.5-69.7,66c-1.3-1-2.6-2.4-3.7-3.7"
          />
          <path
            class="st0"
            d="M196.5,64.1c0.1,21.4-3.1,44.7-8.9,63.4c-3.5,11.3-8.4,22.3-14,32.1"
          />
          <path class="st0" d="M319.4,64.1c0.1,15.8-1.7,32.5-4.9,47.8" />
        </g>
        <path
          class="st0"
          d="M40,139.3c7.4-72.4,74.9-166.5,108.6-127.5c24,27.8,19.7,101-3.9,146.4c-15.6,30.1-47,58.1-75.3,22.8"
        />
      </g>
    </svg>
    